<svg xmlns="http://www.w3.org/2000/svg" viewBox="0 0 512 512">
  <rect width="512" height="512" rx="96" fill="#1c1917"/>
  <g transform="translate(256,240)" fill="none" stroke="#ea580c" stroke-width="24" stroke-linecap="round" stroke-linejoin="round">
    <!-- hat top -->
    <path d="M0-120 C-70-120-100-60-100-20 C-100 20-80 40-60 50 L-60 80 L60 80 L60 50 C80 40 100 20 100-20 C100-60 70-120 0-120Z" fill="#ea580c" stroke="none"/>
    <!-- hat band -->
    <line x1="-68" y1="80" x2="68" y2="80" stroke="#1c1917" stroke-width="16"/>
    <!-- hat puffs -->
    <circle cx="-80" cy="-40" r="45" fill="#fb923c" stroke="none"/>
    <circle cx="80" cy="-40" r="45" fill="#fb923c" stroke="none"/>
    <circle cx="0" cy="-70" r="50" fill="#fb923c" stroke="none"/>
    <!-- hat dome overlay -->
    <path d="M-60 50 C-60-10-30-60 0-60 C30-60 60-10 60 50" fill="#ea580c" stroke="none"/>
  </g>
  <text x="256" y="420" text-anchor="middle" fill="#fafaf9" font-family="system-ui,sans-serif" font-weight="800" font-size="96">foodex</text>
</svg>
